<svg width="184" height="122" viewBox="0 0 184 122" fill="none" xmlns="http://www.w3.org/2000/svg">
<path d="M38.016 92.1582L10.112 63.4862L38.016 34.8142H60.544L32.64 63.4862L60.544 92.1582H38.016Z" fill="#F7F4F0"/>
<path d="M118.311 25.9416H140.967L168.871 54.6136L140.967 83.2856H118.311L146.343 54.6136L118.311 25.9416Z" fill="#F7F4F0"/>
<path d="M109.82 0C104.825 19.4669 105.524 18.0196 104.825 20.5008L94.672 56.2776H113.41C115.159 56.2776 114.377 56.2776 124.324 56.2776C116.065 66.6038 117.399 65.0348 116.065 66.6038L78.7696 110.39C77.3063 112.105 78.7696 110.39 67.2732 122C72.2688 103.731 71.5695 106.212 72.2688 103.731L82.4214 67.9538L83.7116 64.9801C81.9634 64.9801 67.5506 64.9804 54.7026 64.9804C61.0283 57.6276 59.6945 59.1966 61.0283 57.6276L98.3238 13.8417C99.7872 12.1268 98.3238 13.8417 109.82 0Z" fill="#F78035"/>
</svg>
